<svg width="60" height="60" viewBox="0 0 60 60" fill="none" xmlns="http://www.w3.org/2000/svg">
<path d="M52.687 14.2707C52.7286 14.2754 52.7701 14.2776 52.8115 14.2776C53.1078 14.2776 53.3945 14.1602 53.6066 13.9482L59.6706 7.88435C59.979 7.57579 60.0813 7.11665 59.9327 6.70626C59.7841 6.29587 59.4116 6.00853 58.9771 5.96903L54.443 5.55688L54.0306 1.02278C53.9912 0.588252 53.7038 0.215713 53.2935 0.0672368C52.8831 -0.0813569 52.4239 0.0208306 52.1153 0.329385L46.0513 6.39337C45.8098 6.63489 45.6909 6.97333 45.7288 7.31294L46.2655 12.1438L45.13 13.2793C40.9361 9.44294 35.4353 7.01399 29.3821 6.74493V4.60942C29.3821 3.98833 28.8785 3.48478 28.2574 3.48478C27.6363 3.48478 27.1328 3.98833 27.1328 4.60942V6.74458C14.2275 7.31833 3.83367 17.7122 3.2598 30.6175H1.12465C0.503555 30.6175 0 31.1211 0 31.7422C0 32.3633 0.503555 32.8668 1.12465 32.8668H3.2598C3.83367 45.7722 14.2275 56.1659 27.1328 56.7398V58.875C27.1328 59.4961 27.6363 59.9996 28.2574 59.9996C28.8785 59.9996 29.3821 59.4961 29.3821 58.875V56.7398C42.2873 56.1661 52.6812 45.7722 53.255 32.8668H55.3902C56.0113 32.8668 56.5148 32.3633 56.5148 31.7422C56.5148 31.1211 56.0113 30.6175 55.3902 30.6175H53.255C52.986 24.5643 50.557 19.0636 46.7208 14.8694L47.8563 13.7339L52.687 14.2707ZM52.008 3.61778L52.2878 6.69395C52.337 7.23466 52.7652 7.66298 53.3059 7.7122L56.3821 7.99181L52.3982 11.9756L48.4616 11.5383L48.0243 7.60169L52.008 3.61778ZM51.0042 30.6175H49.4197C48.7986 30.6175 48.2951 31.1211 48.2951 31.7422C48.2951 32.3633 48.7986 32.8668 49.4197 32.8668H51.0042C50.4341 44.5319 41.0471 53.9189 29.3822 54.4889V52.9045C29.3822 52.2834 28.8786 51.7799 28.2575 51.7799C27.6364 51.7799 27.1329 52.2834 27.1329 52.9045V54.4889C15.4678 53.919 6.08086 44.5318 5.51074 32.867H7.09523C7.71633 32.867 8.21988 32.3634 8.21988 31.7423C8.21988 31.1212 7.71633 30.6177 7.09523 30.6177H5.51074C6.08086 18.9528 15.4678 9.56563 27.1328 8.99564V10.58C27.1328 11.2011 27.6363 11.7047 28.2574 11.7047C28.8785 11.7047 29.3821 11.2011 29.3821 10.58V8.99564C34.8156 9.26118 39.7547 11.4396 43.5389 14.8702L40.1548 18.2544C36.981 15.4514 32.8147 13.7475 28.2573 13.7475C18.3349 13.7475 10.2625 21.8198 10.2625 31.7423C10.2625 41.6648 18.3349 49.7372 28.2573 49.7372C38.1797 49.7372 46.2521 41.6648 46.2521 31.7423C46.2521 27.185 44.5482 23.0188 41.7455 19.8447L45.1296 16.4606C48.5604 20.2449 50.7387 25.1841 51.0042 30.6175ZM27.4622 32.5375C27.6819 32.7572 27.9696 32.867 28.2574 32.867C28.5452 32.867 28.8332 32.7572 29.0527 32.5375L35.1605 26.4297C36.2958 27.9016 36.9736 29.7439 36.9736 31.7423C36.9736 36.5485 33.0635 40.4586 28.2573 40.4586C23.4511 40.4586 19.541 36.5485 19.541 31.7423C19.541 26.9361 23.4511 23.026 28.2573 23.026C30.2557 23.026 32.0979 23.7038 33.5699 24.8391L27.4621 30.947C27.0231 31.3863 27.0231 32.0983 27.4622 32.5375ZM28.2575 20.7768C22.211 20.7768 17.292 25.696 17.292 31.7424C17.292 37.7888 22.211 42.708 28.2575 42.708C34.3041 42.708 39.2231 37.7888 39.2231 31.7424C39.2231 29.1235 38.2991 26.717 36.7615 24.8291L40.1531 21.4374C42.5504 24.2011 44.0031 27.8052 44.0031 31.7423C44.0031 40.4244 36.9397 47.4877 28.2577 47.4877C19.5756 47.4877 12.5122 40.4244 12.5122 31.7423C12.5122 23.0602 19.5756 15.9968 28.2577 15.9968C32.1947 15.9968 35.799 17.4494 38.5627 19.8467L35.171 23.2385C33.283 21.7009 30.8766 20.7768 28.2575 20.7768Z" fill="#60CD58"/>
</svg>
